<svg width="53" height="16" viewBox="0 0 53 16" fill="none" xmlns="http://www.w3.org/2000/svg">
<path d="M6.94 15.18C5.75333 15.18 4.69333 14.9533 3.76 14.5C2.84 14.0467 2.12 13.4133 1.6 12.6C1.08 11.7867 0.82 10.86 0.82 9.82V6.14C0.82 5.1 1.07333 4.18 1.58 3.38C2.1 2.56667 2.81333 1.94 3.72 1.5C4.62667 1.04667 5.66667 0.819999 6.84 0.819999C8.01333 0.819999 9.05333 0.999999 9.96 1.36C10.88 1.70667 11.5933 2.2 12.1 2.84C12.6067 3.46667 12.86 4.18667 12.86 5C12.86 5.49333 12.6933 5.88667 12.36 6.18C12.04 6.46 11.6067 6.6 11.06 6.6C10.7933 6.6 10.5 6.56 10.18 6.48C10.2067 6.16 10.22 5.84667 10.22 5.54C10.22 4.83333 9.90667 4.26 9.28 3.82C8.65333 3.38 7.84 3.16 6.84 3.16C5.85333 3.16 5.04667 3.44 4.42 4C3.80667 4.54667 3.5 5.26 3.5 6.14V9.82C3.5 10.7133 3.82 11.44 4.46 12C5.1 12.56 5.92667 12.84 6.94 12.84C7.94 12.84 8.75333 12.62 9.38 12.18C10.0067 11.74 10.32 11.1733 10.32 10.48C10.32 10.16 10.3067 9.85333 10.28 9.56C10.6133 9.49333 10.8933 9.46 11.12 9.46C11.68 9.46 12.1267 9.60667 12.46 9.9C12.7933 10.1933 12.96 10.5933 12.96 11.1C12.96 11.8867 12.7067 12.5933 12.2 13.22C11.6933 13.8333 10.98 14.3133 10.06 14.66C9.15333 15.0067 8.11333 15.18 6.94 15.18ZM20.4109 15.18C19.3176 15.18 18.3176 14.9667 17.4109 14.54C16.5043 14.1 15.7843 13.5067 15.2509 12.76C14.7309 12.0133 14.4709 11.2 14.4709 10.32V5.66C14.4709 4.78 14.7309 3.97333 15.2509 3.24C15.7843 2.49333 16.5043 1.90667 17.4109 1.48C18.3176 1.04 19.3176 0.819999 20.4109 0.819999C21.5043 0.819999 22.5043 1.04 23.4109 1.48C24.3309 1.90667 25.0509 2.49333 25.5709 3.24C26.1043 3.97333 26.3709 4.78 26.3709 5.66V10.32C26.3709 11.2 26.1043 12.0133 25.5709 12.76C25.0509 13.5067 24.3309 14.1 23.4109 14.54C22.5043 14.9667 21.5043 15.18 20.4109 15.18ZM20.4109 12.84C21.4109 12.84 22.2109 12.6067 22.8109 12.14C23.4109 11.66 23.7109 11.04 23.7109 10.28V5.72C23.7109 4.94667 23.4109 4.32667 22.8109 3.86C22.2109 3.38 21.4109 3.14 20.4109 3.14C19.4243 3.14 18.6309 3.38 18.0309 3.86C17.4309 4.32667 17.1309 4.94667 17.1309 5.72V10.28C17.1309 11.04 17.4309 11.66 18.0309 12.14C18.6309 12.6067 19.4243 12.84 20.4109 12.84ZM29.6489 15C29.2756 15 28.9556 14.8867 28.6889 14.66C28.4356 14.42 28.3089 14.1267 28.3089 13.78V2.22C28.3089 1.87333 28.4356 1.58667 28.6889 1.36C28.9422 1.12 29.2622 0.999999 29.6489 0.999999H34.0889C35.2756 0.999999 36.3222 1.22667 37.2289 1.68C38.1489 2.13333 38.8556 2.77333 39.3489 3.6C39.8556 4.41333 40.1089 5.34667 40.1089 6.4V9.56C40.1089 10.6133 39.8556 11.5533 39.3489 12.38C38.8422 13.2067 38.1289 13.8533 37.2089 14.32C36.3022 14.7733 35.2622 15 34.0889 15H29.6489ZM33.8889 12.7C35.0489 12.7 35.9289 12.44 36.5289 11.92C37.1289 11.3867 37.4289 10.6067 37.4289 9.58V6.36C37.4289 5.36 37.1289 4.6 36.5289 4.08C35.9289 3.56 35.0489 3.3 33.8889 3.3H30.9889V12.7H33.8889ZM42.1175 2.22C42.1175 1.88667 42.2442 1.6 42.4975 1.36C42.7642 1.12 43.0842 0.999999 43.4575 0.999999H52.3775C52.3775 1.8 52.2375 2.38667 51.9575 2.76C51.6908 3.12 51.2508 3.3 50.6375 3.3H44.7975V6.78H50.1175C50.1175 7.58 49.9775 8.16667 49.6975 8.54C49.4308 8.9 48.9908 9.08 48.3775 9.08H44.7975V12.7H51.0575C51.6575 12.7 52.0908 12.8867 52.3575 13.26C52.6375 13.62 52.7775 14.2 52.7775 15H43.4575C43.0842 15 42.7642 14.8867 42.4975 14.66C42.2442 14.42 42.1175 14.1267 42.1175 13.78V2.22Z" fill="#00D674"/>
</svg>
