<svg width="144" height="16" viewBox="0 0 144 16" fill="none" xmlns="http://www.w3.org/2000/svg">
<path d="M6.94 15.18C5.75333 15.18 4.69333 14.9533 3.76 14.5C2.84 14.0467 2.12 13.4133 1.6 12.6C1.08 11.7867 0.82 10.86 0.82 9.82V6.14C0.82 5.1 1.07333 4.18 1.58 3.38C2.1 2.56667 2.81333 1.94 3.72 1.5C4.62667 1.04667 5.66667 0.819999 6.84 0.819999C8.01333 0.819999 9.05333 0.999999 9.96 1.36C10.88 1.70667 11.5933 2.2 12.1 2.84C12.6067 3.46667 12.86 4.18667 12.86 5C12.86 5.49333 12.6933 5.88667 12.36 6.18C12.04 6.46 11.6067 6.6 11.06 6.6C10.7933 6.6 10.5 6.56 10.18 6.48C10.2067 6.16 10.22 5.84667 10.22 5.54C10.22 4.83333 9.90667 4.26 9.28 3.82C8.65333 3.38 7.84 3.16 6.84 3.16C5.85333 3.16 5.04667 3.44 4.42 4C3.80667 4.54667 3.5 5.26 3.5 6.14V9.82C3.5 10.7133 3.82 11.44 4.46 12C5.1 12.56 5.92667 12.84 6.94 12.84C7.94 12.84 8.75333 12.62 9.38 12.18C10.0067 11.74 10.32 11.1733 10.32 10.48C10.32 10.16 10.3067 9.85333 10.28 9.56C10.6133 9.49333 10.8933 9.46 11.12 9.46C11.68 9.46 12.1267 9.60667 12.46 9.9C12.7933 10.1933 12.96 10.5933 12.96 11.1C12.96 11.8867 12.7067 12.5933 12.2 13.22C11.6933 13.8333 10.98 14.3133 10.06 14.66C9.15333 15.0067 8.11333 15.18 6.94 15.18ZM20.4109 15.18C19.3176 15.18 18.3176 14.9667 17.4109 14.54C16.5043 14.1 15.7843 13.5067 15.2509 12.76C14.7309 12.0133 14.4709 11.2 14.4709 10.32V5.66C14.4709 4.78 14.7309 3.97333 15.2509 3.24C15.7843 2.49333 16.5043 1.90667 17.4109 1.48C18.3176 1.04 19.3176 0.819999 20.4109 0.819999C21.5043 0.819999 22.5043 1.04 23.4109 1.48C24.3309 1.90667 25.0509 2.49333 25.5709 3.24C26.1043 3.97333 26.3709 4.78 26.3709 5.66V10.32C26.3709 11.2 26.1043 12.0133 25.5709 12.76C25.0509 13.5067 24.3309 14.1 23.4109 14.54C22.5043 14.9667 21.5043 15.18 20.4109 15.18ZM20.4109 12.84C21.4109 12.84 22.2109 12.6067 22.8109 12.14C23.4109 11.66 23.7109 11.04 23.7109 10.28V5.72C23.7109 4.94667 23.4109 4.32667 22.8109 3.86C22.2109 3.38 21.4109 3.14 20.4109 3.14C19.4243 3.14 18.6309 3.38 18.0309 3.86C17.4309 4.32667 17.1309 4.94667 17.1309 5.72V10.28C17.1309 11.04 17.4309 11.66 18.0309 12.14C18.6309 12.6067 19.4243 12.84 20.4109 12.84ZM28.3089 2.82C28.3089 2.20667 28.5489 1.72 29.0289 1.36C29.5089 0.986666 30.1622 0.799999 30.9889 0.799999L35.1889 11.36L34.7289 12.62L34.9289 12.7L39.4289 0.819999C40.2422 0.819999 40.8889 1.00667 41.3689 1.38C41.8622 1.74 42.1089 2.22667 42.1089 2.84V15.18C40.3622 15.18 39.4889 14.5267 39.4889 13.22V6.82L40.1689 4.98L39.9489 4.9L36.2889 14.46C36.1956 14.6733 36.0489 14.8467 35.8489 14.98C35.6622 15.1133 35.4489 15.18 35.2089 15.18C34.9689 15.18 34.7489 15.1133 34.5489 14.98C34.3622 14.8467 34.2222 14.6667 34.1289 14.44L30.4689 4.88L30.2489 4.96L30.9089 6.8V13.22C30.9089 14.5267 30.0422 15.18 28.3089 15.18V2.82ZM44.4613 2.82C44.4613 2.20667 44.7013 1.72 45.1813 1.36C45.6613 0.986666 46.3146 0.799999 47.1413 0.799999L51.3413 11.36L50.8813 12.62L51.0813 12.7L55.5813 0.819999C56.3946 0.819999 57.0413 1.00667 57.5213 1.38C58.0146 1.74 58.2613 2.22667 58.2613 2.84V15.18C56.5146 15.18 55.6413 14.5267 55.6413 13.22V6.82L56.3213 4.98L56.1013 4.9L52.4413 14.46C52.3479 14.6733 52.2013 14.8467 52.0013 14.98C51.8146 15.1133 51.6013 15.18 51.3613 15.18C51.1213 15.18 50.9013 15.1133 50.7013 14.98C50.5146 14.8467 50.3746 14.6667 50.2813 14.44L46.6213 4.88L46.4013 4.96L47.0613 6.8V13.22C47.0613 14.5267 46.1946 15.18 44.4613 15.18V2.82ZM66.4136 15.18C65.2936 15.18 64.2803 14.9533 63.3736 14.5C62.4803 14.0467 61.7803 13.42 61.2736 12.62C60.7669 11.82 60.5136 10.9133 60.5136 9.9V2.8C60.5136 2.16 60.7403 1.67333 61.1936 1.34C61.6469 0.993332 62.3136 0.819999 63.1936 0.819999V9.9C63.1936 10.7933 63.4869 11.5067 64.0736 12.04C64.6603 12.5733 65.4403 12.84 66.4136 12.84C67.3869 12.84 68.1669 12.5733 68.7536 12.04C69.3403 11.5067 69.6336 10.7933 69.6336 9.9V2.8C69.6336 2.14667 69.8603 1.65333 70.3136 1.32C70.7669 0.986666 71.4336 0.819999 72.3136 0.819999V9.9C72.3136 10.9133 72.0603 11.82 71.5536 12.62C71.0469 13.42 70.3403 14.0467 69.4336 14.5C68.5403 14.9533 67.5336 15.18 66.4136 15.18ZM74.5589 2.94C74.5589 2.28667 74.7789 1.77333 75.2189 1.4C75.6589 1.01333 76.2522 0.819999 76.9989 0.819999L83.7589 11.38L83.9589 11.22L83.1389 9.86V0.819999C84.0056 0.819999 84.6589 0.986666 85.0989 1.32C85.5522 1.65333 85.7789 2.14667 85.7789 2.8V13.36C85.7789 13.8533 85.5656 14.28 85.1389 14.64C84.7256 15 84.2456 15.18 83.6989 15.18L76.5789 4.04L76.3789 4.22L77.1989 5.58V13.2C77.1989 13.8533 76.9722 14.3467 76.5189 14.68C76.0789 15.0133 75.4256 15.18 74.5589 15.18V2.94ZM88.5136 2.82C88.5136 2.19333 88.7469 1.70667 89.2136 1.36C89.6803 0.999999 90.3403 0.819999 91.1936 0.819999V13.18C91.1936 13.82 90.9603 14.3133 90.4936 14.66C90.0269 15.0067 89.3669 15.18 88.5136 15.18V2.82ZM99.6939 15.18C98.5072 15.18 97.4472 14.9533 96.5139 14.5C95.5939 14.0467 94.8739 13.4133 94.3539 12.6C93.8339 11.7867 93.5739 10.86 93.5739 9.82V6.14C93.5739 5.1 93.8272 4.18 94.3339 3.38C94.8539 2.56667 95.5672 1.94 96.4739 1.5C97.3806 1.04667 98.4206 0.819999 99.5939 0.819999C100.767 0.819999 101.807 0.999999 102.714 1.36C103.634 1.70667 104.347 2.2 104.854 2.84C105.361 3.46667 105.614 4.18667 105.614 5C105.614 5.49333 105.447 5.88667 105.114 6.18C104.794 6.46 104.361 6.6 103.814 6.6C103.547 6.6 103.254 6.56 102.934 6.48C102.961 6.16 102.974 5.84667 102.974 5.54C102.974 4.83333 102.661 4.26 102.034 3.82C101.407 3.38 100.594 3.16 99.5939 3.16C98.6072 3.16 97.8006 3.44 97.1739 4C96.5606 4.54667 96.2539 5.26 96.2539 6.14V9.82C96.2539 10.7133 96.5739 11.44 97.2139 12C97.8539 12.56 98.6806 12.84 99.6939 12.84C100.694 12.84 101.507 12.62 102.134 12.18C102.761 11.74 103.074 11.1733 103.074 10.48C103.074 10.16 103.061 9.85333 103.034 9.56C103.367 9.49333 103.647 9.46 103.874 9.46C104.434 9.46 104.881 9.60667 105.214 9.9C105.547 10.1933 105.714 10.5933 105.714 11.1C105.714 11.8867 105.461 12.5933 104.954 13.22C104.447 13.8333 103.734 14.3133 102.814 14.66C101.907 15.0067 100.867 15.18 99.6939 15.18ZM109.065 15.18C108.492 15.1133 108.038 14.9133 107.705 14.58C107.385 14.2467 107.225 13.8267 107.225 13.32C107.225 12.9333 107.318 12.5333 107.505 12.12L112.085 1.7C112.338 1.11333 112.778 0.819999 113.405 0.819999C114.018 0.819999 114.452 1.11333 114.705 1.7L119.285 12.12C119.472 12.56 119.565 12.96 119.565 13.32C119.565 13.8267 119.398 14.2467 119.065 14.58C118.745 14.9133 118.292 15.1133 117.705 15.18L116.025 11.38H110.765L109.065 15.18ZM115.205 9.1L113.005 3.62L112.765 3.72L113.245 4.96L111.565 9.1H115.205ZM123.446 3.32H118.626C118.626 1.77333 119.326 0.999999 120.726 0.999999H130.946C130.946 2.54667 130.24 3.32 128.826 3.32H126.126V13.2C126.126 13.84 125.9 14.3333 125.446 14.68C124.993 15.0133 124.326 15.18 123.446 15.18V3.32ZM132.664 2.22C132.664 1.88667 132.791 1.6 133.044 1.36C133.311 1.12 133.631 0.999999 134.004 0.999999H142.924C142.924 1.8 142.784 2.38667 142.504 2.76C142.238 3.12 141.798 3.3 141.184 3.3H135.344V6.78H140.664C140.664 7.58 140.524 8.16667 140.244 8.54C139.978 8.9 139.538 9.08 138.924 9.08H135.344V12.7H141.604C142.204 12.7 142.638 12.8867 142.904 13.26C143.184 13.62 143.324 14.2 143.324 15H134.004C133.631 15 133.311 14.8867 133.044 14.66C132.791 14.42 132.664 14.1267 132.664 13.78V2.22Z" fill="#7255EE"/>
</svg>
