<svg width="248" height="30" viewBox="0 0 248 30" fill="none" xmlns="http://www.w3.org/2000/svg">
<path d="M0.8 2.76C0.8 2.25333 0.986667 1.84 1.36 1.52C1.73333 1.17333 2.18667 0.999998 2.72 0.999998H20.44C20.44 2.12 20.2133 2.94667 19.76 3.48C19.3067 4.01333 18.6 4.28 17.64 4.28H4.56V13.24H15.76C15.76 14.36 15.5333 15.1867 15.08 15.72C14.6267 16.2533 13.9333 16.52 13 16.52H4.56V25.72H18.48C19.4133 25.72 20.1067 25.9867 20.56 26.52C21.0133 27.0533 21.24 27.88 21.24 29H2.72C2.18667 29 1.73333 28.84 1.36 28.52C0.986667 28.1733 0.8 27.7467 0.8 27.24V2.76ZM25.8391 3.88C25.8391 2.86667 26.1457 2.08 26.7591 1.52C27.3991 0.933331 28.2791 0.639998 29.3991 0.639998L44.9191 24.24L45.1991 24L44.0391 22.08V0.639998C45.2657 0.639998 46.1857 0.906665 46.7991 1.44C47.4391 1.97333 47.7591 2.74667 47.7591 3.76V26.4C47.7591 27.2533 47.4524 27.96 46.8391 28.52C46.2524 29.08 45.4924 29.36 44.5591 29.36L28.6791 5.24L28.3991 5.48L29.5591 7.4V26.24C29.5591 27.2533 29.2391 28.0267 28.5991 28.56C27.9857 29.0933 27.0657 29.36 25.8391 29.36V3.88ZM60.7225 4.32H50.9625C50.9625 2.10666 52.0025 0.999998 54.0825 0.999998H74.2025C74.2025 3.21333 73.1625 4.32 71.0825 4.32H64.4825V26.24C64.4825 27.2533 64.1625 28.0267 63.5225 28.56C62.8825 29.0933 61.9492 29.36 60.7225 29.36V4.32ZM78.4172 2.76C78.4172 2.25333 78.5905 1.84 78.9372 1.52C79.3105 1.17333 79.7772 0.999998 80.3372 0.999998H91.3772C93.9639 0.999998 96.0172 1.76 97.5372 3.28C99.0839 4.77333 99.8572 6.77333 99.8572 9.28C99.8572 12.4267 98.4839 14.6533 95.7372 15.96V16.08C96.9372 16.5867 97.8572 17.36 98.4972 18.4C99.1372 19.4133 99.4572 20.6533 99.4572 22.12V26.24C99.4572 27.2533 99.1372 28.0267 98.4972 28.56C97.8572 29.0933 96.9239 29.36 95.6972 29.36V22.36C95.6972 20.7867 95.3372 19.6 94.6172 18.8C93.9239 17.9733 92.8839 17.56 91.4972 17.56H82.1372V26.24C82.1372 27.2533 81.8172 28.0267 81.1772 28.56C80.5639 29.0933 79.6439 29.36 78.4172 29.36V2.76ZM91.2572 14.32C92.7239 14.32 93.8839 13.8667 94.7372 12.96C95.6172 12.0533 96.0572 10.8133 96.0572 9.24C96.0572 7.64 95.6439 6.41333 94.8172 5.56C93.9905 4.70667 92.8039 4.28 91.2572 4.28H82.1372V14.32H91.2572ZM112.221 18.84L102.261 1.12C102.448 0.986666 102.728 0.879999 103.101 0.799998C103.501 0.693331 103.874 0.639998 104.221 0.639998C105.581 0.639998 106.554 1.21333 107.141 2.36L113.981 15.2L113.141 16.88L113.421 17.04L121.021 2.36C121.634 1.21333 122.621 0.639998 123.981 0.639998C124.328 0.639998 124.688 0.693331 125.061 0.799998C125.461 0.879999 125.754 0.986666 125.941 1.12L115.981 18.84V26.24C115.981 27.2533 115.661 28.0267 115.021 28.56C114.381 29.0933 113.448 29.36 112.221 29.36V18.84Z" fill="#FFC600"/>
<path d="M150.039 29.36C149.079 29.36 148.292 29.1333 147.679 28.68C147.066 28.2 146.652 27.5333 146.439 26.68L139.839 0.999998C140.239 0.759998 140.746 0.639998 141.359 0.639998C142.132 0.639998 142.786 0.839999 143.319 1.24C143.852 1.61333 144.199 2.13333 144.359 2.8L148.719 21.76L148.079 24.12L148.319 24.2L154.759 1.88C154.866 1.48 155.066 1.17333 155.359 0.959999C155.679 0.746665 156.052 0.639998 156.479 0.639998C156.879 0.639998 157.239 0.746665 157.559 0.959999C157.879 1.17333 158.092 1.48 158.199 1.88L163.759 21.92L163.199 24.36L163.439 24.44L168.599 2.8C168.759 2.13333 169.092 1.61333 169.599 1.24C170.132 0.839999 170.772 0.639998 171.519 0.639998C172.132 0.639998 172.666 0.759998 173.119 0.999998L166.519 26.68C166.306 27.5333 165.879 28.2 165.239 28.68C164.626 29.1333 163.839 29.36 162.879 29.36L156.039 5.16L155.799 5.24L156.319 7.12L150.039 29.36ZM181.346 29.36C179.053 29.36 177.2 28.7467 175.786 27.52C174.4 26.2933 173.706 24.68 173.706 22.68C173.706 20.6533 174.44 19.0267 175.906 17.8C177.373 16.5467 179.306 15.92 181.706 15.92C184.266 15.92 186.373 16.8267 188.026 18.64L188.186 18.48C187.893 18.16 187.56 17.8267 187.186 17.48V15.8C187.186 14.44 186.76 13.3867 185.906 12.64C185.053 11.8933 183.84 11.52 182.266 11.52C179.466 11.52 177.466 12.6267 176.266 14.84C175.84 14.6267 175.48 14.3467 175.186 14C174.92 13.6267 174.786 13.2533 174.786 12.88C174.786 12.16 175.146 11.48 175.866 10.84C176.586 10.1733 177.533 9.64 178.706 9.24C179.906 8.84 181.16 8.64 182.466 8.64C185 8.64 186.986 9.26667 188.426 10.52C189.893 11.7733 190.626 13.5067 190.626 15.72V26.68C190.626 27.6133 190.36 28.2933 189.826 28.72C189.293 29.1467 188.453 29.36 187.306 29.36V27.48C187.866 26.8933 188.173 26.5467 188.226 26.44L188.066 26.28C186.333 28.3333 184.093 29.36 181.346 29.36ZM181.946 26.6C183.6 26.6 184.893 26.2533 185.826 25.56C186.786 24.8667 187.266 23.9067 187.266 22.68C187.266 21.4533 186.8 20.48 185.866 19.76C184.933 19.04 183.653 18.68 182.026 18.68C180.506 18.68 179.306 19.04 178.426 19.76C177.573 20.4533 177.146 21.4267 177.146 22.68C177.146 23.9333 177.56 24.9067 178.386 25.6C179.24 26.2667 180.426 26.6 181.946 26.6ZM202.198 29.36C200.304 29.36 198.891 28.8267 197.958 27.76C197.024 26.6667 196.558 25.24 196.558 23.48V11.8H192.838C192.838 10.8933 193.038 10.2 193.438 9.72C193.838 9.24 194.384 9 195.078 9H196.598V5.2C196.598 4.32 196.878 3.68 197.438 3.28C198.024 2.85333 198.891 2.64 200.038 2.64V9H205.358C205.358 10.8667 204.518 11.8 202.838 11.8H200.078V23.36C200.078 24.4267 200.264 25.1867 200.638 25.64C201.038 26.0667 201.744 26.28 202.758 26.28C203.691 26.28 204.571 26.04 205.398 25.56C205.744 25.9067 205.918 26.3733 205.918 26.96C205.918 27.6 205.584 28.16 204.918 28.64C204.251 29.12 203.344 29.36 202.198 29.36ZM218.136 29.36C216.509 29.36 215.056 29.0667 213.776 28.48C212.496 27.8933 211.496 27.0667 210.776 26C210.083 24.9333 209.736 23.72 209.736 22.36V15.88C209.736 14.4667 210.083 13.2133 210.776 12.12C211.496 11.0267 212.483 10.1733 213.736 9.56C214.989 8.94667 216.429 8.64 218.056 8.64C219.576 8.64 220.923 8.86667 222.096 9.32C223.296 9.74667 224.229 10.36 224.896 11.16C225.563 11.96 225.896 12.8667 225.896 13.88C225.896 14.5467 225.629 15.0933 225.096 15.52C224.589 15.92 223.923 16.0933 223.096 16.04C223.096 14.76 222.629 13.72 221.696 12.92C220.789 12.12 219.603 11.72 218.136 11.72C216.669 11.72 215.483 12.12 214.576 12.92C213.669 13.6933 213.216 14.7067 213.216 15.96V22.2C213.216 23.4 213.683 24.3867 214.616 25.16C215.549 25.9067 216.749 26.28 218.216 26.28C219.683 26.28 220.869 25.88 221.776 25.08C222.709 24.28 223.176 23.2533 223.176 22C224.029 21.9467 224.709 22.12 225.216 22.52C225.749 22.8933 226.016 23.4267 226.016 24.12C226.016 25.1333 225.683 26.04 225.016 26.84C224.349 27.64 223.416 28.2667 222.216 28.72C221.016 29.1467 219.656 29.36 218.136 29.36ZM230.605 3.6C230.605 2.64 230.898 1.90667 231.485 1.4C232.071 0.893331 232.938 0.639998 234.085 0.639998V11.16C233.711 11.5867 233.418 11.96 233.205 12.28L233.365 12.44C234.191 11.32 235.231 10.4133 236.485 9.72C237.738 9 239.098 8.64 240.565 8.64C242.725 8.64 244.431 9.28 245.685 10.56C246.938 11.84 247.565 13.4933 247.565 15.52V26.8C247.565 27.68 247.271 28.3333 246.685 28.76C246.125 29.16 245.258 29.36 244.085 29.36V15.88C244.085 14.6 243.725 13.5867 243.005 12.84C242.285 12.0933 241.191 11.72 239.725 11.72C238.738 11.72 237.805 11.9333 236.925 12.36C236.071 12.76 235.378 13.32 234.845 14.04C234.338 14.7333 234.085 15.4933 234.085 16.32V26.8C234.085 27.68 233.791 28.3333 233.205 28.76C232.645 29.16 231.778 29.36 230.605 29.36V3.6Z" fill="#FF4320"/>
</svg>
