<svg width="62" height="16" viewBox="0 0 62 16" fill="none" xmlns="http://www.w3.org/2000/svg">
<path d="M6.68 15.18C5.48 15.18 4.43333 15.0333 3.54 14.74C2.64667 14.4467 1.96 14.0333 1.48 13.5C1.01333 12.9533 0.78 12.32 0.78 11.6C0.78 10.5067 1.52 9.96 3 9.96C3.05333 10.9733 3.39333 11.74 4.02 12.26C4.66 12.78 5.55333 13.04 6.7 13.04C7.64667 13.04 8.38 12.88 8.9 12.56C9.42 12.2267 9.68 11.7667 9.68 11.18C9.68 10.7933 9.58 10.48 9.38 10.24C9.18 9.98667 8.84 9.76667 8.36 9.58C7.88 9.38 7.18 9.18 6.26 8.98C4.95333 8.67333 3.92 8.33333 3.16 7.96C2.41333 7.58667 1.87333 7.14 1.54 6.62C1.20667 6.08667 1.04 5.42667 1.04 4.64C1.04 3.88 1.26 3.21333 1.7 2.64C2.15333 2.06667 2.78667 1.62 3.6 1.3C4.42667 0.979999 5.37333 0.819999 6.44 0.819999C7.46667 0.819999 8.38 0.959999 9.18 1.24C9.99333 1.50667 10.6267 1.88667 11.08 2.38C11.5467 2.87333 11.78 3.44 11.78 4.08C11.78 5.06667 11.0667 5.58 9.64 5.62C9.56 4.7 9.26667 4.02667 8.76 3.6C8.25333 3.17333 7.48 2.96 6.44 2.96C5.54667 2.96 4.86 3.10667 4.38 3.4C3.9 3.69333 3.66 4.10667 3.66 4.64C3.66 5.01333 3.75333 5.32667 3.94 5.58C4.12667 5.82 4.44 6.03333 4.88 6.22C5.32 6.39333 5.94667 6.57333 6.76 6.76C8.13333 7.06667 9.22 7.41333 10.02 7.8C10.82 8.17333 11.4 8.63333 11.76 9.18C12.12 9.71333 12.3 10.3733 12.3 11.16C12.3 11.9733 12.0667 12.6867 11.6 13.3C11.1467 13.9 10.4933 14.3667 9.64 14.7C8.8 15.02 7.81333 15.18 6.68 15.18ZM17.5284 3.32H12.7084C12.7084 1.77333 13.4084 0.999999 14.8084 0.999999H25.0284C25.0284 2.54667 24.3218 3.32 22.9084 3.32H20.2084V13.2C20.2084 13.84 19.9818 14.3333 19.5284 14.68C19.0751 15.0133 18.4084 15.18 17.5284 15.18V3.32ZM25.9008 15.18C25.3274 15.1133 24.8741 14.9133 24.5408 14.58C24.2208 14.2467 24.0608 13.8267 24.0608 13.32C24.0608 12.9333 24.1541 12.5333 24.3408 12.12L28.9208 1.7C29.1741 1.11333 29.6141 0.819999 30.2408 0.819999C30.8541 0.819999 31.2874 1.11333 31.5408 1.7L36.1208 12.12C36.3074 12.56 36.4008 12.96 36.4008 13.32C36.4008 13.8267 36.2341 14.2467 35.9008 14.58C35.5808 14.9133 35.1274 15.1133 34.5408 15.18L32.8608 11.38H27.6008L25.9008 15.18ZM32.0408 9.1L29.8408 3.62L29.6008 3.72L30.0808 4.96L28.4008 9.1H32.0408ZM38.348 2.22C38.348 1.88667 38.4746 1.6 38.728 1.36C38.9946 1.12 39.3146 0.999999 39.688 0.999999H48.748C48.748 1.8 48.608 2.38667 48.328 2.76C48.0613 3.12 47.6213 3.3 47.008 3.3H41.028V6.68H46.348C46.348 7.48 46.208 8.06667 45.928 8.44C45.6613 8.8 45.2213 8.98 44.608 8.98H41.028V13.28C41.028 13.9467 40.8146 14.4333 40.388 14.74C39.9613 15.0333 39.2813 15.18 38.348 15.18V2.22ZM50.6331 2.22C50.6331 1.88667 50.7598 1.6 51.0131 1.36C51.2798 1.12 51.5998 0.999999 51.9731 0.999999H61.0331C61.0331 1.8 60.8931 2.38667 60.6131 2.76C60.3465 3.12 59.9065 3.3 59.2931 3.3H53.3131V6.68H58.6331C58.6331 7.48 58.4931 8.06667 58.2131 8.44C57.9465 8.8 57.5065 8.98 56.8931 8.98H53.3131V13.28C53.3131 13.9467 53.0998 14.4333 52.6731 14.74C52.2465 15.0333 51.5665 15.18 50.6331 15.18V2.22Z" fill="#2F96FD"/>
</svg>
